<svg width="476" height="529" viewBox="0 0 476 529" fill="none" xmlns="http://www.w3.org/2000/svg">
<g opacity="0.63">
<path d="M355.989 223.588C314.573 259.334 270.789 227.293 250.394 205.741C230 184.19 240.718 181.288 282.135 145.542C323.551 109.796 373.658 98.2889 394.053 119.841C414.447 141.392 397.405 187.841 355.989 223.588Z" fill="#F5D3DC"/>
<path d="M355.989 223.588C314.573 259.334 270.789 227.293 250.394 205.741C230 184.19 240.718 181.288 282.135 145.542C323.551 109.796 373.658 98.2889 394.053 119.841C414.447 141.392 397.405 187.841 355.989 223.588Z" fill="#F5D3DC"/>
<path d="M355.989 223.588C314.573 259.334 270.789 227.293 250.394 205.741C230 184.19 240.718 181.288 282.135 145.542C323.551 109.796 373.658 98.2889 394.053 119.841C414.447 141.392 397.405 187.841 355.989 223.588Z" fill="#F5D3DC"/>
<path d="M355.418 222.984C376.056 205.172 390.591 184.717 397.43 166.076C404.287 147.386 403.337 130.765 393.472 120.341C383.608 109.917 366.389 107.338 346.228 111.968C326.119 116.586 303.343 128.333 282.706 146.146C277.525 150.617 272.824 154.575 268.607 158.117C264.388 161.661 260.657 164.787 257.407 167.6C250.891 173.24 246.375 177.573 243.78 181.43C241.21 185.249 240.576 188.522 241.703 192.103C242.857 195.765 245.884 199.862 250.974 205.241L250.394 205.741L249.461 204.745C230.646 184.419 241.024 180.841 280.216 147.194L282.135 145.542C323.551 109.796 373.658 98.289 394.052 119.84C414.447 141.392 397.405 187.841 355.989 223.588L355.018 224.413C313.89 258.834 270.629 227.125 250.394 205.741L250.974 205.241C261.122 215.964 277.043 229.244 295.515 235.413C313.921 241.56 334.923 240.674 355.418 222.984Z" fill="#F5D3DC"/>
<path d="M282.345 192.818C286.618 247.499 298.985 204.379 269.395 205.216C239.804 206.052 239.972 195.539 177.035 181.159C172.762 126.478 191.438 96.16 221.029 95.3234C250.619 94.4868 278.071 138.137 282.345 192.818Z" fill="#F5D3DC"/>
<path d="M282.345 192.818C286.618 247.499 298.985 204.379 269.395 205.216C239.804 206.052 239.972 195.539 177.035 181.159C172.762 126.478 191.438 96.16 221.029 95.3234C250.619 94.4868 278.071 138.137 282.345 192.818Z" fill="#F5D3DC"/>
<path d="M282.345 192.818C286.618 247.499 298.985 204.379 269.395 205.216C239.804 206.052 239.972 195.539 177.035 181.159C172.762 126.478 191.438 96.16 221.029 95.3234C250.619 94.4868 278.071 138.137 282.345 192.818Z" fill="#F5D3DC"/>
<path d="M286.073 214.031C286.417 215.456 286.754 216.599 287.071 217.494C287.311 218.17 287.534 218.69 287.734 219.076C287.684 217.894 287.206 216.008 286.073 214.031ZM281.518 192.842C279.389 165.595 271.486 141.134 260.469 123.617C249.424 106.056 235.404 95.6862 221.089 96.0908C206.646 96.4992 194.809 104.085 187.077 118.415C179.387 132.67 175.783 153.572 177.818 180.556C208.935 187.7 224.542 193.886 236.002 198.184C247.473 202.485 254.704 204.862 269.334 204.448C275.647 204.27 280.172 206.036 283.31 208.491C282.652 204.486 282.027 199.348 281.518 192.842ZM282.551 195.31C286.995 246.163 298.522 204.392 269.394 205.216C239.804 206.052 239.972 195.539 177.035 181.159C172.762 126.478 191.439 96.16 221.029 95.3234L221.722 95.3121C251.046 95.1698 278.105 138.564 282.345 192.818L282.551 195.31Z" fill="#F5D3DC"/>
<path d="M374.393 324.119C384.804 300.61 371.732 272.026 345.196 260.274L120.416 160.727L38.2731 346.208C27.862 369.716 40.9338 398.301 67.4698 410.053L61.9969 422.41L61.1975 422.051C27.7607 406.792 11.2563 370.701 24.0147 340.743L24.3238 340.03L111.94 142.191L350.669 247.916C384.909 263.08 401.776 299.963 388.342 330.297L300.726 528.135L61.9969 422.41L67.4698 410.053L292.25 509.6L374.393 324.119Z" fill="#F5D3DC"/>
<path d="M343.13 314.446L335.894 330.786L283.599 307.626L231.412 425.465L211.666 416.721L263.853 298.881L211.559 275.722L218.795 259.382L343.13 314.446Z" fill="#F5D3DC"/>
<path d="M190.656 246.92L131.233 381.099L111.487 372.354L170.91 238.175L190.656 246.92Z" fill="#F5D3DC"/>
<path d="M218.795 259.382L211.559 275.722L263.853 298.882L211.667 416.721L231.412 425.465L283.599 307.626L335.894 330.786L343.13 314.446L218.795 259.382ZM336.365 331.816L284.07 308.656L231.883 426.495L210.588 417.064L262.774 299.225L210.48 276.066L218.324 258.352L344.209 314.102L336.365 331.816Z" fill="#F5D3DC"/>
<path d="M170.91 238.175L111.487 372.355L131.232 381.099L190.656 246.92L170.91 238.175ZM131.703 382.129L110.408 372.698L170.439 237.146L191.735 246.577L131.703 382.129Z" fill="#F5D3DC"/>
</g>
</svg>
